<?xml version="1.0" encoding="UTF-8"?><svg id="b" xmlns="http://www.w3.org/2000/svg" xmlns:xlink="http://www.w3.org/1999/xlink" viewBox="0 0 114.91 114.91"><defs><style>.e{fill:#8daeb7;}.e,.f,.g{stroke-width:0px;}.h{stroke-width:.75px;}.h,.f,.i,.j,.k{fill:none;}.h,.i,.j,.k,.l{stroke-miterlimit:10;}.h,.i,.k{stroke:#8daeb7;}.i{stroke-width:.5px;}.j{stroke:#3d737f;}.k{stroke-width:.25px;}.g,.l{fill:#f6fffc;}.m{clip-path:url(#d);}.l{stroke:#d3ddda;}</style><clipPath id="d"><circle class="f" cx="57.46" cy="57.46" r="56.96"/></clipPath></defs><g id="c"><circle class="l" cx="57.46" cy="57.46" r="56.96"/><g class="m"><rect class="g" x="20.57" y="15.47" width="73.76" height="98.94"/><path class="j" d="M55.26,41.72s-.4-2.25-2.63-3.21"/><path class="j" d="M60.22,41.72s.4-2.25,2.63-3.21"/><path class="h" d="M57.6,25.4l-.7-7.44"/><path class="h" d="M38.43,42.03v-.63s1.27-10.14,7.53-13.81c0,0,4.99-2.47,11.63-2.19"/><path class="h" d="M57.6,25.4s3.76-.21,7.74.72c3.39.79,6.33,2.91,8.2,5.85,1.71,2.68,3.7,6.62,3.84,10.59"/><path class="h" d="M42.11,47.1s1.04-2.5,3.6-3.65c1.3-.58,2.8-.47,4.06.19,1.42.73,3.16,2.11,3.38,4.5,0,0-.77,1.68-6.2.97s-4.84-2-4.84-2Z"/><path class="h" d="M73.5,46.97s-1.37-3.3-4.83-4.06c-.59-.13-1.21-.08-1.78.14-1.43.53-4.14,1.93-4.43,4.96,0,0,.77,1.68,6.2.97s4.84-2,4.84-2Z"/><path class="i" d="M57.18,50.23s-3.13,1.92-3.23,4.05,3.65,2.14,3.65,2.14c0,0,3.94.07,3.94-1.7s-2.31-4.01-2.31-4.01c0,0-.75-.75-2.04-.48Z"/><path class="h" d="M37.7,49.17l-.27,7.2c-.05,1.39.35,2.77,1.16,3.91,2.45,3.43,8.41,10.37,16.67,10.45,10.98.1,13.18-2.61,13.18-2.61,0,0,5.82-3.09,8.83-9.2.5-1,.72-2.12.72-3.24v-8.48"/><path class="e" d="M57.67,59.95s-.85-.65-2.71-.74h-2.33c-.15,0-.3-.02-.45-.05-.6-.13-2.24-.54-2.88-1.07,0,0,1.76,2.32,6.22,3.48,0,0,2.93.65,6.01-.6,0,0,2.39-.88,4.75-2.65,0,0-1.3.79-3.57.79,0,0-2.97-.45-3.67.54l-.86.63-.51-.33Z"/><circle class="e" cx="47.63" cy="46.13" r="2.89"/><circle class="e" cx="67.49" cy="46.17" r="2.89"/><path class="h" d="M48.13,68.91l-.25,1.39c-.07.37-.3.7-.63.89l-2.68,1.54c-1.17.9-5.18,2.34-5.63,2.5-.03.01-.06.02-.09.03-5.43,1.47-5.51,2.21-7.27,3.5-.07.05-.13.1-.18.14-1.47,1.24-.1,2.41-.1,2.41,0,0-3.16,2.78-4.43,10.16l-6.31,22.65"/><path class="k" d="M49.7,69.62v1.93c0,.15.07.29.2.36.8.5,3.77,2.4,4.27,3.52v.62s2.37,1.65,3.32,3.32c.16.28.55.32.74.05.56-.81,1.59-2.2,2.75-3.13v-.96s3.9-2.27,4.76-4.13c.03-.06.04-.13.04-.19v-1.49"/><path class="h" d="M67.49,68.91v.08c0,1.01.55,1.94,1.44,2.41s1.98,1.14,2.83,1.97c.28.28.61.48,1,.55,1.35.23,4.63.88,5.71,1.79l1.77,1.11c.48.31,1.13,0,1.21-.56,6.03-38.98-1.12-48.54-1.12-48.54-6.52-12.57-15.06-12.26-15.06-12.26-3.46,0-6.06,1.13-7.39,1.87-.54.3-1.2.32-1.74,0-2.13-1.23-6.48-1.14-7.21-1.12-.07,0-.14,0-.21.02-8.92,1.12-13.27,12.74-13.27,12.74-5.85,15.05-2.09,48.5-2.09,48.5"/><path class="h" d="M48.13,76.84s-2.76,1.5-3.62,2.36c-2.06,2.08-4.64,6.24-4.64,6.24l-2.25,6.31c-1.16,2.25-1.89,6.89-1.89,6.89-.51,2.54-2.03,3.41-2.03,3.41-.73,8.2,6.85,7.11,6.85,7.11l2.62-4.6,2.37-2.84,3.06.07c2.91.15,4.32,1.79,4.32,1.79,0,0,1.57,1.86,3.5.97s1.31-3.95,1.31-3.95c0,0-1.23-1.34-2.57-1.86s-3.5-2.39-3.5-2.39l-3.13-3.28c-2.09-2.24-1.63-4.93-1.63-4.93l1.84-3.93c1.48-.25,3.01-2.4,3.01-2.4.49.61,2.19,1.48,2.19,1.48,1.95,1.48,3.14.74,3.14.74,1.77-.98.71-2.71.71-2.71-.66-1.91-3.85-3.85-3.85-3.85-1.87-1.4-5.81-.63-5.81-.63-.86-3.75-.25-6.54-.25-6.54"/><path class="h" d="M80.23,76.83s3.05.79,4.09,3.24l-.46,1.13s3.34,3.99,4.71,11.26l5.77,21.52"/><path class="e" d="M52.17,38.33v-1.4s.27-.65-.59-.7c0,0-3.84-.16-5.78.54,0,0-1.98.71-2.86,2.46"/><path class="e" d="M63.15,38.33v-1.4s-.27-.65.59-.7c0,0,3.84-.16,5.78.54,0,0,1.98.71,2.86,2.46"/><path class="h" d="M66.91,76.31s6.08,2.23,8.36,8.14c0,0,1.18,3.08,2.11,4.93s2.32,7.46,2.32,7.46c0,0-.25.38.3,2.32s1.77,2.57,1.77,2.57c.42,2.28-.17,3.75-.17,3.75-.93,2.66-3.46,3.08-3.46,3.08-2.49.89-3.46.25-3.46.25l-2.11-4.43c-.84-.59-2.61-3.23-2.61-3.23l-2.01.41c-3.02-.24-4.59,1.36-4.59,1.36-3.05,3.26-4.82.71-4.82.71-2.07-3.61,1.6-5.03,1.6-5.03,1.95-.65,3.67-2.31,3.67-2.31,1.12-.77,5.01-5.74,5.01-5.74v-3.41c-1.16-1.85-1.82-3.84-1.82-3.84-1.73-.43-2.71-2.12-2.71-2.12l-2.08,1.73s-1.41,1.96-2.98.75-.79-2.98-.79-2.98c0,0,1.39-2.46,3.21-3.86s5.26-.51,5.26-.51c.89-1.57.47-6.22.47-6.22"/><path class="k" d="M31.31,81.33s2.39,3.6,3.04,3.73c0,0,1.91,3.87,3.71,5.46"/><path class="k" d="M83.86,81.2s-3.34,3.99-4.33,4.03c0,0-.32,2.43-2.36,3.74"/><path class="k" d="M50.91,82.81s2.52,4.04,5.51,5.76c0,0,1.31.99,2.54,0,0,0,4.41-3.08,5.91-6.61"/><path class="h" d="M33.7,102.06c-.03-2.33,2.13-4.01,2.13-4.01,0,0-4.21,2.87-5.91,5.72,0,0-5.02,6.08-7.18,10.36"/><path class="h" d="M40.56,109.17s2.12-.52,3.44-3.03.44-3.07.44-3.07"/><path class="h" d="M29.93,103.77s-2.14,4.13,1.39,8.39,8.57,1.18,8.57,1.18c0,0,1.51-1.18,2.16-2.29s2.68-6.54,2.68-6.54"/><line class="h" x1="42.04" y1="111.05" x2="41.62" y2="114.14"/><path class="h" d="M71.28,103s-.92,4.49,3.4,5.83"/><path class="h" d="M81.76,101.74s-.4-2.34-2.04-3.72c0,0,3.79,2.09,5.84,6.01,0,0,1.45,4.64-1.21,7.17,0,0-2.83,4.1-7.9,2.35,0,0-3.17-1.27-5.11-8.2"/><path class="h" d="M85.56,104.03s4.52,5.02,6.84,10.11h-18.63s-.47-1.51-.24-3.59"/><path class="k" d="M72.76,73.92s1.08,4.22-.77,5.69"/><path class="k" d="M47.22,87.45s2.37,3.6,5.07,5.28c0,0,2.41,3.09,5.44,3.31,0,0,1.97-.34,4.94-2.98,0,0,3.76-2.3,5.05-4.83l.9-1.4"/><path class="j" d="M52.63,38.51h9.6s8.42-1.02,13.15,1.81,1.57,10.79,1.57,10.79c0,0-1.81,4.64-8.34,2.6s-7.48-6.14-7.48-6.14c0,0-1.1-2.17-.88-5.76,0,0-.53-1.14-2.45-1.36,0,0-1.18-.09-2.54,1.27,0,0,.64,6.37-3.04,9.41,0,0-4.62,3.67-8.67,3.1s-5.85-5.05-5.85-5.05c0,0-1.73-7.08,2.6-8.96,0,0,3.36-2.19,12.33-1.71Z"/><path class="k" d="M43.33,73.46s-1.87,1.15-.69,4.69l.95,2.09"/></g></g></svg>